# xmcd CD database file
#
# Track frame offsets:
#	150
#	15476
#	34231
#	58159
#	72196
#	95057
#	119462
#	150372
#	177063
#	194062
#	211111
#	243002
#
# Disc length: 3548 seconds
#
# Revision: 0
# Processed by: cddbd v1.5.1PL0 Copyright (c) Steve Scherf et al.
# Submitted via: CDex 1.51
#
DISCID=9d0dda0c
DTITLE=Red Devils - King King
DYEAR=1992
DGENRE=Blues
TTITLE0=Automatic
TTITLE1=Goin' to the Church
TTITLE2=She's Dangerous
TTITLE3=I Wish You Would
TTITLE4=Cross My Heart
TTITLE5=Tail Dragger
TTITLE6=Devil Woman
TTITLE7=No Fightin'
TTITLE8=Mr Highway Man
TTITLE9=Im Ready
TTITLE10=Quarter to Twelve
TTITLE11=Better Cut That Out
EXTD=YEAR: 1992
EXTT0=
EXTT1=
EXTT2=
EXTT3=
EXTT4=
EXTT5=
EXTT6=
EXTT7=
EXTT8=
EXTT9=
EXTT10=
EXTT11=
PLAYORDER=
